HIERARCHY
ROOT hips
{
  OFFSET 0 10.6860622 2.3727825e-15
  CHANNELS 6 Xposition Yposition Zposition Yrotation Xrotation Zrotation
  JOINT leftUpperLeg
  {
    OFFSET 0.6642549969 -0.9402397400000004 0
    CHANNELS 3 Yrotation Xrotation Zrotation
    JOINT leftLowerLeg
    {
      OFFSET 0 -3.997221335632195 0
      CHANNELS 3 Yrotation Xrotation Zrotation
      JOINT leftFoot
      {
        OFFSET -0.13777839790000004 -4.6145792000000005 -0.22186036399999998
        CHANNELS 3 Yrotation Xrotation Zrotation
        JOINT leftToes
        {
          OFFSET -0.03777410834999995 -0.9130806927000008 0.85230013
          CHANNELS 3 Yrotation Xrotation Zrotation
          End Site
          {
            OFFSET -0.03777410834999995 -0.9130806927000008 0.85230013
          }
        }
      }
    }
  }
  JOINT rightUpperLeg
  {
    OFFSET -0.6642778626 -0.9402397400000004 0
    CHANNELS 3 Yrotation Xrotation Zrotation
    JOINT rightLowerLeg
    {
      OFFSET 0 -3.997221452859387 0
      CHANNELS 3 Yrotation Xrotation Zrotation
      JOINT rightFoot
      {
        OFFSET 0.1377926176 -4.6145792000000005 -0.22185782299999995
        CHANNELS 3 Yrotation Xrotation Zrotation
        JOINT rightToes
        {
          OFFSET 0.037780746850000047 -0.9130806927000008 0.85230167
          CHANNELS 3 Yrotation Xrotation Zrotation
          End Site
          {
            OFFSET 0.037780746850000047 -0.9130806927000008 0.85230167
          }
        }
      }
    }
  }
  JOINT spine
  {
    OFFSET 0 0.13988381660000015 0
    CHANNELS 3 Yrotation Xrotation Zrotation
    JOINT chest
    {
      OFFSET 0 0.6191039003973773 0
      CHANNELS 3 Yrotation Xrotation Zrotation
      JOINT upperChest
      {
        OFFSET 0 0.9855186130586943 0
        CHANNELS 3 Yrotation Xrotation Zrotation
        JOINT leftShoulder
        {
          OFFSET 0.1807663869 1.5087829790000005 0
          CHANNELS 3 Yrotation Xrotation Zrotation
          JOINT leftUpperArm
          {
            OFFSET 0.5985063006419806 0 0
            CHANNELS 3 Yrotation Xrotation Zrotation
            JOINT leftLowerArm
            {
              OFFSET 2.2993332369501065 0 0
              CHANNELS 3 Yrotation Xrotation Zrotation
              JOINT leftHand
              {
                OFFSET 2.395047042602395 0 0
                CHANNELS 3 Yrotation Xrotation Zrotation
                JOINT leftIndexProximal
                {
                  OFFSET 0.5766295810000004 0.04556643899499946 0.17265095988184
                  CHANNELS 3 Yrotation Xrotation Zrotation
                  JOINT leftIndexIntermediate
                  {
                    OFFSET 0.2957229000000008 -0.019352197700001517 -0.007932640616999987
                    CHANNELS 3 Yrotation Xrotation Zrotation
                    JOINT leftIndexDistal
                    {
                      OFFSET 0.19008243099999922 -0.012484908149998475 -0.002786250786000012
                      CHANNELS 3 Yrotation Xrotation Zrotation
                      End Site
                      {
                        OFFSET 0.19008243099999922 -0.012484908149998475 -0.002786250786000012
                      }
                    }
                  }
                }
                JOINT leftMiddleProximal
                {
                  OFFSET 0.5834975091000001 0.0524350405149987 0.02204081888183999
                  CHANNELS 3 Yrotation Xrotation Zrotation
                  JOINT leftMiddleIntermediate
                  {
                    OFFSET 0.33880573540000003 -0.019871473270000717 -0.00000971183179999946
                    CHANNELS 3 Yrotation Xrotation Zrotation
                    JOINT leftMiddleDistal
                    {
                      OFFSET 0.20676022730000088 -0.012221336379999448 0.0001471936708000235
                      CHANNELS 3 Yrotation Xrotation Zrotation
                      End Site
                      {
                        OFFSET 0.20676022730000088 -0.012221336379999448 0.0001471936708000235
                      }
                    }
                  }
                }
                JOINT leftLittleProximal
                {
                  OFFSET 0.5344154683999995 -0.012880921405001189 -0.24414037221816004
                  CHANNELS 3 Yrotation Xrotation Zrotation
                  JOINT leftLittleIntermediate
                  {
                    OFFSET 0.21758961730000093 -0.011650919939999227 0.011893592810000034
                    CHANNELS 3 Yrotation Xrotation Zrotation
                    JOINT leftLittleDistal
                    {
                      OFFSET 0.1475273964999999 -0.008152365682999818 0.006001092492999946
                      CHANNELS 3 Yrotation Xrotation Zrotation
                      End Site
                      {
                        OFFSET 0.1475273964999999 -0.008152365682999818 0.006001092492999946
                      }
                    }
                  }
                }
                JOINT leftRingProximal
                {
                  OFFSET 0.5799399463000003 0.026911854694997794 -0.12150566991816003
                  CHANNELS 3 Yrotation Xrotation Zrotation
                  JOINT leftRingIntermediate
                  {
                    OFFSET 0.26167887460000006 -0.013480186499999602 0.010996293000000053
                    CHANNELS 3 Yrotation Xrotation Zrotation
                    JOINT leftRingDistal
                    {
                      OFFSET 0.17667108799999987 -0.008990287899999228 0.0055541023999999065
                      CHANNELS 3 Yrotation Xrotation Zrotation
                      End Site
                      {
                        OFFSET 0.17667108799999987 -0.008990287899999228 0.0055541023999999065
                      }
                    }
                  }
                }
                JOINT leftThumbProximal
                {
                  OFFSET 0.11018806699999972 -0.09448718900500053 0.17047963138184
                  CHANNELS 3 Yrotation Xrotation Zrotation
                  JOINT leftThumbIntermediate
                  {
                    OFFSET 0.31062601459999983 -0.08126270900000132 0.15443142000000007
                    CHANNELS 3 Yrotation Xrotation Zrotation
                    JOINT leftThumbDistal
                    {
                      OFFSET 0.21627175790000086 -0.08833193599999878 0.018771167799999988
                      CHANNELS 3 Yrotation Xrotation Zrotation
                      End Site
                      {
                        OFFSET 0.21627175790000086 -0.08833193599999878 0.018771167799999988
                      }
                    }
                  }
                }
              }
            }
          }
        }
        JOINT neck
        {
          OFFSET 0 1.5463305265074576 0
          CHANNELS 3 Yrotation Xrotation Zrotation
          JOINT head
          {
            OFFSET 0 0.8456443600000344 0
            CHANNELS 3 Yrotation Xrotation Zrotation
            JOINT leftEye
            {
              OFFSET 0.30408573140000006 0.5104519199999995 0.1276382305
              CHANNELS 3 Yrotation Xrotation Zrotation
              End Site
              {
                OFFSET 0.30408573140000006 0.5104519199999995 0.1276382305
              }
            }
            JOINT rightEye
            {
              OFFSET -0.30409491089999996 0.5104519199999995 0.1276379445
              CHANNELS 3 Yrotation Xrotation Zrotation
              End Site
              {
                OFFSET -0.30409491089999996 0.5104519199999995 0.1276379445
              }
            }
            JOINT jaw
            {
              OFFSET -3.155239131000001e-7 -0.11984121820000082 0.60178107
              CHANNELS 3 Yrotation Xrotation Zrotation
              End Site
              {
                OFFSET -3.155239131000001e-7 -0.11984121820000082 0.60178107
              }
            }
          }
        }
        JOINT rightShoulder
        {
          OFFSET -0.1807303465 1.5087829790000005 0
          CHANNELS 3 Yrotation Xrotation Zrotation
          JOINT rightUpperArm
          {
            OFFSET -0.5985063796536958 0 0
            CHANNELS 3 Yrotation Xrotation Zrotation
            JOINT rightLowerArm
            {
              OFFSET -2.2993322059002854 0 0
              CHANNELS 3 Yrotation Xrotation Zrotation
              JOINT rightHand
              {
                OFFSET -2.395045314457259 0 0
                CHANNELS 3 Yrotation Xrotation Zrotation
                JOINT rightIndexProximal
                {
                  OFFSET -0.5764487688300002 0.0441371204405987 0.17361932004999997
                  CHANNELS 3 Yrotation Xrotation Zrotation
                  JOINT rightIndexIntermediate
                  {
                    OFFSET -0.29573011380000047 -0.01934826376999843 -0.007698921482999974
                    CHANNELS 3 Yrotation Xrotation Zrotation
                    JOINT rightIndexDistal
                    {
                      OFFSET -0.19008373999999884 -0.012503266380000655 -0.0026365778999999897
                      CHANNELS 3 Yrotation Xrotation Zrotation
                      End Site
                      {
                        OFFSET -0.19008373999999884 -0.012503266380000655 -0.0026365778999999897
                      }
                    }
                  }
                }
                JOINT rightMiddleProximal
                {
                  OFFSET -0.5834852037300005 0.05211639405060153 0.02307162440000001
                  CHANNELS 3 Yrotation Xrotation Zrotation
                  JOINT rightMiddleIntermediate
                  {
                    OFFSET -0.33880114510000003 -0.019952774050000954 0.0002455003561999819
                    CHANNELS 3 Yrotation Xrotation Zrotation
                    JOINT rightMiddleDistal
                    {
                      OFFSET -0.20675694929999955 -0.012273788999999091 0.00030209124000002766
                      CHANNELS 3 Yrotation Xrotation Zrotation
                      End Site
                      {
                        OFFSET -0.20675694929999955 -0.012273788999999091 0.00030209124000002766
                      }
                    }
                  }
                }
                JOINT rightLittleProximal
                {
                  OFFSET -0.5346811737299992 -0.011214256288399227 -0.24363941305000003
                  CHANNELS 3 Yrotation Xrotation Zrotation
                  JOINT rightLittleIntermediate
                  {
                    OFFSET -0.21757715980000092 -0.011771559690000988 0.01201554387
                    CHANNELS 3 Yrotation Xrotation Zrotation
                    JOINT rightLittleDistal
                    {
                      OFFSET -0.1475201849000004 -0.00822055339600003 0.006082065407000015
                      CHANNELS 3 Yrotation Xrotation Zrotation
                      End Site
                      {
                        OFFSET -0.1475201849000004 -0.00822055339600003 0.006082065407000015
                      }
                    }
                  }
                }
                JOINT rightRingProximal
                {
                  OFFSET -0.5800810755299999 0.027657985680600072 -0.12066365025000003
                  CHANNELS 3 Yrotation Xrotation Zrotation
                  JOINT rightRingIntermediate
                  {
                    OFFSET -0.26166445029999974 -0.013623118409999302 0.011164098990000045
                    CHANNELS 3 Yrotation Xrotation Zrotation
                    JOINT rightRingDistal
                    {
                      OFFSET -0.17666387530000027 -0.009072900100000503 0.005668185599999959
                      CHANNELS 3 Yrotation Xrotation Zrotation
                      End Site
                      {
                        OFFSET -0.17666387530000027 -0.009072900100000503 0.005668185599999959
                      }
                    }
                  }
                }
                JOINT rightThumbProximal
                {
                  OFFSET -0.10997596379000074 -0.09577489355940072 0.16989765924999997
                  CHANNELS 3 Yrotation Xrotation Zrotation
                  JOINT rightThumbIntermediate
                  {
                    OFFSET -0.31036620999999986 -0.08229339117999834 0.15440884469999996
                    CHANNELS 3 Yrotation Xrotation Zrotation
                    JOINT rightThumbDistal
                    {
                      OFFSET -0.21631306399999906 -0.08825326400000111 0.018656797720000014
                      CHANNELS 3 Yrotation Xrotation Zrotation
                      End Site
                      {
                        OFFSET -0.21631306399999906 -0.08825326400000111 0.018656797720000014
                      }
                    }
                  }
                }
              }
            }
          }
        }
      }
    }
  }
}
MOTION
Frames: 7
Frame Time: 0.03333333333333333
5.366740723532839 -5.584411149838409 2.8346526178030738 0.2920098522791151 -88.77235514184858 179.7141791648718 104.23882052602079 -63.22942551126698 -95.20695100292836 -42.08364813284165 17.964921445711596 -11.988507489715065 9.10632065169666 3.3190799753802858 16.322631358378917 0 0 0 -102.41826491241626 -63.206567121974985 95.39330442342231 42.11828363395595 18.12988614037356 11.981456713733987 -9.80155066128305 3.2477427765404943 -18.13035191028856 0 0 0 9.413879475963107e-19 -7.778751682044029 -2.398887386903645e-18 -0.4617858539772905 13.099901150751718 -0.11826642339084462 0 0 0 -4.979579131829089 -3.7483660475780187 -23.334005014716364 -39.21993739347087 41.90511595392578 -52.05108801253581 -12.670040264205898 35.89419617682208 -0.1594073544614516 -3.4052010770369607 -5.232666627130428 -0.29437008391871716 0 0 0 0 0 0 0 0 0 0 0 0 0 0 0 0 0 0 0 0 0 0 0 0 0 0 0 0 0 0 0 0 0 0 0 0 0 0 0 0 0 0 0 0 0 16.943308816970813 12.620350419644105 -3.8732693500274302 -0.12182813281479907 0.08501599610520837 -0.00009076969604848816 0 0 0 0 0 0 0 0 0 5.079826371020617 -3.769096294379647 24.4482220513417 38.291975510565216 42.706495517764736 50.69297781265803 13.037378482654814 35.87312499448709 0.527843147297972 3.455613872376997 -5.241590811405845 0.18314742990797933 0 0 0 0 0 0 0 0 0 0 0 0 0 0 0 0 0 0 0 0 0 0 0 0 0 0 0 0 0 0 0 0 0 0 0 0 0 0 0 0 0 0 0 0 0
5.366740723532839 -5.584411149838409 2.8218744617661913 0.37540964385503905 -89.04735068573271 179.63077926198608 104.23882052602079 -63.22942551126698 -95.20695100292836 -42.061605454674265 17.81890463434245 -11.860649996287243 9.10632065169666 3.3190799753802858 16.322631358378917 0 0 0 -102.41826491241626 -63.206567121974985 95.39330442342231 42.097436925409184 17.991400635247707 11.85310062129925 -9.80155066128305 3.2477427765404943 -18.13035191028856 0 0 0 -1.6201723772282218e-18 -8.10407508702804 8.932207274070386e-19 -0.460742840084578 12.54821093362757 -0.1137103699762227 0 0 0 -4.736793769560832 -3.4346406171719193 -22.530662398878235 -39.76477998561984 41.42939484155821 -52.910734064985434 -13.003661863596081 35.899326777354965 -0.15087497470610037 -3.209803799029821 -4.966897100807962 -0.6569759632458095 0 0 0 0 0 0 0 0 0 0 0 0 0 0 0 0 0 0 0 0 0 0 0 0 0 0 0 0 0 0 0 0 0 0 0 0 0 0 0 0 0 0 0 0 0 16.851859894277553 12.571476360615524 -4.097678343362809 -0.12121913944785102 0.08459099645673002 -0.00008996689183802633 0 0 0 0 0 0 0 0 0 4.834233994854969 -3.450806967883894 23.5847839460504 38.908762013274945 42.1977576590799 51.64602911287014 13.351342435263494 35.87862934736108 0.4995947215335921 3.257271037876004 -4.975658614191502 0.5516011808428427 0 0 0 0 0 0 0 0 0 0 0 0 0 0 0 0 0 0 0 0 0 0 0 0 0 0 0 0 0 0 0 0 0 0 0 0 0 0 0 0 0 0 0 0 0
5.366740723532839 -5.584411149838409 2.815485517943886 0.4382143114474895 -89.1848262463074 179.56797451464007 104.23882052602079 -63.22942551126698 -95.20695100292836 -42.05072006186573 17.745879269841907 -11.79678339283659 9.10632065169666 3.3190799753802858 16.322631358378917 0 0 0 -102.41826491241626 -63.206567121974985 95.39330442342231 42.08714935117311 17.922143047195803 11.788985605789156 -9.80155066128305 3.2477427765404943 -18.13035191028856 0 0 0 1.2084593064369223e-8 -8.26673257410585 -1.039481814756872e-8 -0.4602390594465086 12.27239166212377 -0.11144019283207156 0 0 0 -4.613816874608304 -3.2790995849018656 -22.12869316524536 -40.032071613780964 41.189310307556084 -53.33584137366904 -13.17047581806925 35.90191117456087 -0.14662406171333706 -3.1127752472968724 -4.833561690669411 -0.8378690770923012 0 0 0 0 0 0 0 0 0 0 0 0 0 0 0 0 0 0 0 0 0 0 0 0 0 0 0 0 0 0 0 0 0 0 0 0 0 0 0 0 0 0 0 0 0 16.806233753960765 12.546916430717024 -4.209794632783724 -0.1209146360839982 0.08437849996929463 -0.00008906944236092099 0 0 0 0 0 0 0 0 0 4.7097098985655546 -3.2931029399524694 23.152784153803292 39.210923669271224 41.940641814779866 52.11677825588006 13.508329511558937 35.88143224674622 0.48548539615842556 3.1587810171706194 -4.842227203085558 0.7354122005887084 0 0 0 0 0 0 0 0 0 0 0 0 0 0 0 0 0 0 0 0 0 0 0 0 0 0 0 0 0 0 0 0 0 0 0 0 0 0 0 0 0 0 0 0 0
5.366740723532839 -5.584411149838409 2.8090965741215803 0.5265108326502469 -89.32246892535343 179.47967798179212 104.23882052602079 -63.22942551126698 -95.20695100292836 -42.03992490802301 17.67284066779549 -11.7329565236645 9.10632065169666 3.3190799753802858 16.322631358378917 0 0 0 -102.41826491241626 -63.206567121974985 95.39330442342231 42.07694677194552 17.852873057593914 11.724908609354383 -9.80155066128305 3.2477427765404943 -18.13035191028856 0 0 0 -1.5657194581936026e-18 -8.429388995518071 1.1538298713408505e-19 -0.4597469897641358 11.996572015442894 -0.1091748499927673 0 0 0 -4.489768623928836 -3.1244241046538543 -21.726448873852178 -40.296019082759514 40.947751737691895 -53.75790912079555 -13.337294301601842 35.90450830472757 -0.1423823126801313 -3.0161882793365344 -4.699921845710561 -1.0185001895041623 0 0 0 0 0 0 0 0 0 0 0 0 0 0 0 0 0 0 0 0 0 0 0 0 0 0 0 0 0 0 0 0 0 0 0 0 0 0 0 0 0 0 0 0 0 16.760660287713424 12.522269636565612 -4.32187979166419 -0.12061012552438853 0.08416600348301982 -0.00008817312628205346 0 0 0 0 0 0 0 0 0 4.584017123876401 -3.1363411433978063 22.72050753086608 39.50903195416617 41.68169600925857 52.58381293914186 13.665321561491707 35.88426896621112 0.4713851621691025 3.0607400125845796 -4.708482014878778 0.9189570670003822 0 0 0 0 0 0 0 0 0 0 0 0 0 0 0 0 0 0 0 0 0 0 0 0 0 0 0 0 0 0 0 0 0 0 0 0 0 0 0 0 0 0 0 0 0
5.366740723532839 -5.584411149838409 2.7963184180846987 0.883972404731944 -89.59748808018563 179.1222164072441 104.23882052602079 -63.22942551126698 -95.20695100292836 -42.018603321475474 17.52673050391599 -11.605424675391037 9.10632065169666 3.3190799753802858 16.322631358378917 0 0 0 -102.41826491241626 -63.206567121974985 95.39330442342231 42.05678641621089 17.714302697163255 11.596859657904945 -9.80155150394783 3.24774363168759 -18.13035353566841 0 0 0 -1.4467988985414308e-18 -8.75468660782481 -1.4467988985414308e-18 -0.4587968908005599 11.445006267108207 -0.10465784843312849 0 0 0 -4.238571980025579 -2.8178174158324794 -20.921435193862347 -40.81384026393801 40.46043483871278 -54.59279149804949 -13.670930207747926 35.909728119581416 -0.1339269039952587 -2.8243572367918204 -4.431764323698021 -1.3789476912345842 0 0 0 0 0 0 0 0 0 0 0 0 0 0 0 0 0 0 0 0 0 0 0 0 0 0 0 0 0 0 0 0 0 0 0 0 0 0 0 0 0 0 0 0 0 16.66971949916743 12.472740020421558 -4.5458667919693285 -0.12000113213909741 0.08374100384382667 -0.00008738839130556739 0 0 0 0 0 0 0 0 0 4.329259306409139 -2.8258103179783784 21.8554815539761 40.093028036127166 41.15863537216981 53.506588636860386 13.97930047121759 35.89003123373227 0.44321182732229714 2.8660235962483416 -4.44008279927609 1.2852160789093976 0 0 0 0 0 0 0 0 0 0 0 0 0 0 0 0 0 0 0 0 0 0 0 0 0 0 0 0 0 0 0 0 0 0 0 0 0 0 0 0 0 0 0 0 0
5.366740723532839 -5.584411149838409 2.7899293400662577 1.3409296418288048 -89.73459180824896 178.6652591823983 104.23882052602079 -63.22942551126698 -95.20695100292836 -42.0080787065214 17.453662311289705 -11.54172131837489 9.10632065169666 3.3190799753802858 16.322631358378917 0 0 0 -102.41826491241626 -63.206567121974985 95.39330442342231 42.0468358265979 17.645005731106867 11.532896272537068 -9.80155066128305 3.2477432041140424 -18.13035353566841 0 0 0 1.2111821852280552e-8 -8.917325224038313 -1.0513795271346836e-8 -0.45833973437100867 11.169275113335575 -0.10240731532330885 0 0 0 -4.1114501042614116 -2.665919361651349 -20.51870218335998 -41.06774907536806 40.21475640344758 -55.005640125830304 -13.83774240385916 35.912346589357846 -0.1297119140233721 -2.7291166475967956 -4.297255780835806 -1.5587594523584394 0 0 0 0 0 0 0 0 0 0 0 0 0 0 0 0 0 0 0 0 0 0 0 0 0 0 0 0 0 0 0 0 0 0 0 0 0 0 0 0 0 0 0 0 0 16.62434273325223 12.447850239778456 -4.657770754878712 -0.11969612804437509 0.08352850069090255 -0.00008699925139678902 0 0 0 0 0 0 0 0 0 4.200226420533166 -2.672083036567449 21.422783488469168 40.37895521077631 40.89461427699566 53.96235182458188 14.136286974429495 35.89295678826734 0.4291403097403437 2.7693532905333034 -4.3054409113952765 1.4679268098480407 0 0 0 0 0 0 0 0 0 0 0 0 0 0 0 0 0 0 0 0 0 0 0 0 0 0 0 0 0 0 0 0 0 0 0 0 0 0 0 0 0 0 0 0 0
5.366740723532839 -5.584411149838409 2.7835402620478162 -179.993804232625 -89.87179575127199 0 104.23882052602079 -63.22942551126698 -95.20695100292836 -41.997646348220805 17.380582251872355 -11.478057581096918 9.10632065169666 3.3190799753802858 16.322631358378917 0 0 0 -102.41826491241626 -63.206567121974985 95.39330442342231 42.03697258731124 17.575696008461026 11.4689710877794 -9.80155066128305 3.2477427765404943 -18.13035191028856 0 0 0 7.216452425902401e-19 -9.079964547773283 7.216452425902401e-19 -0.4578939910777547 10.893544012091525 -0.10016111455409446 0 0 0 -3.9832782957529544 -2.5149179402421233 -20.115681689042827 -41.31842834187271 39.96768841310553 -55.41556908463761 -14.004561910364682 35.91497357929463 -0.12550621733870146 -2.6343163232377593 -4.162449949912046 -1.7383155838303956 0 0 0 0 0 0 0 0 0 0 0 0 0 0 0 0 0 0 0 0 0 0 0 0 0 0 0 0 0 0 0 0 0 0 0 0 0 0 0 0 0 0 0 0 0 16.579019195692016 12.422874547087684 -4.769643400099824 -0.11939113109549618 0.08331599753912741 -0.00008661123837246553 0 0 0 0 0 0 0 0 0 4.070051264250802 -2.5193338628684576 20.989794911389858 40.660965627977845 40.62888874297852 54.41456447181488 14.293276720248459 35.8959119610282 0.41507821111544807 2.6731305890171457 -4.170492408218708 1.650377445900312 0 0 0 0 0 0 0 0 0 0 0 0 0 0 0 0 0 0 0 0 0 0 0 0 0 0 0 0 0 0 0 0 0 0 0 0 0 0 0 0 0 0 0 0 0
